<svg width="393" height="120" viewBox="0 0 393 120" fill="none" xmlns="http://www.w3.org/2000/svg">
<path d="M201.883 80.9338C201.883 77.5279 202.783 74.1485 205.076 71.5412C207.157 69.1809 210.005 67.7382 212.937 66.7059C219.355 64.447 225.228 64.2485 232.632 64.2573C233.075 64.2573 233.967 64.2485 233.967 64.2485V62.9779C233.967 58.822 231.549 55.125 227.579 53.7088C226.266 53.2368 224.864 53.0294 223.472 53.0294C217.585 53.0294 213.367 55.8573 212.573 61.6147H201.98C203.449 51.5647 212.183 44.4397 223.472 44.4397C235.83 44.4397 244.657 51.3706 244.657 63.4676V94.3985H233.967V87.2735C231.802 91.6632 225.818 95.175 219.147 95.175C208.554 95.175 201.883 89.0294 201.883 80.9294V80.9338ZM224.35 72.5338C222.642 72.7015 220.943 72.9485 219.28 73.3676C217.226 73.8882 215.053 74.7573 213.748 76.5044C213.535 76.7912 213.345 77.1 213.189 77.422C212.737 78.3618 212.573 79.4118 212.573 80.4485C212.573 84.6441 215.815 86.9823 220.912 86.9823C228.661 86.9823 233.967 81.322 233.967 73.5176V72.2162C233.967 72.2162 231.146 72.2029 230.95 72.2073C227.495 72.2426 227.366 72.2868 225.579 72.4279C225.166 72.4588 224.758 72.4941 224.345 72.5382L224.35 72.5338Z" fill="#FDFDFC"/>
<path d="M244.905 112.553V103.575C245.593 103.672 246.671 103.769 247.655 103.769C252.065 103.769 253.44 100.549 253.44 95.0823V45.2162H264.139V96.3529C264.139 106.994 259.131 112.946 248.831 112.946C247.363 112.946 245.69 112.751 244.91 112.557L244.905 112.553ZM252.366 30.8735C252.366 27.3132 255.077 24.7059 258.74 24.7059C262.404 24.7059 265.203 27.3132 265.203 30.8735C265.203 34.4338 262.409 37.0412 258.74 37.0412C255.072 37.0412 252.366 34.4338 252.366 30.8735Z" fill="#FDFDFC"/>
<path d="M333.82 87.472V94.4029H323.028V25.3102H333.82V52.0455C336.664 47.4573 343.047 44.4352 349.909 44.4352C364.529 44.4352 374.146 54.4852 374.146 69.8073C374.146 85.1294 364.529 95.1794 349.909 95.1794C343.144 95.1794 336.664 92.0558 333.82 87.472ZM363.252 69.8073C363.252 60.1499 357.077 53.6117 348.534 53.6117C339.991 53.6117 333.816 60.1499 333.816 69.8073C333.816 79.4646 339.902 86.0073 348.534 86.0073C357.166 86.0073 363.252 79.3676 363.252 69.8073Z" fill="#FDFDFC"/>
<path d="M379.855 30.8735C379.855 27.5515 382.383 25.1206 385.808 25.1206C389.232 25.1206 391.832 27.5515 391.832 30.8735C391.832 34.1956 389.223 36.6265 385.808 36.6265C382.392 36.6265 379.855 34.1956 379.855 30.8735ZM380.853 45.2162H391.552V94.3985H380.853V45.2162Z" fill="#FDFDFC"/>
<path d="M187.453 45.2162L160.435 69.7809L187.52 94.3985H201.883L183.168 76.8838L175.654 69.7809L183.168 62.6779L201.821 45.2162H187.453Z" fill="#FDFDFC"/>
<path d="M165.784 25.2838H155.085V94.372H165.784V25.2838Z" fill="#FDFDFC"/>
<path d="M271.196 80.9338C271.196 77.5279 272.097 74.1485 274.39 71.5412C276.47 69.1809 279.318 67.7382 282.25 66.7059C288.669 64.447 294.542 64.2485 301.945 64.2573C302.388 64.2573 303.28 64.2485 303.28 64.2485V62.9779C303.28 58.822 300.863 55.125 296.893 53.7088C295.58 53.2368 294.178 53.0294 292.785 53.0294C286.899 53.0294 282.68 55.8573 281.886 61.6147H271.294C272.762 51.5647 281.496 44.4397 292.785 44.4397C305.143 44.4397 313.97 51.3706 313.97 63.4676V94.3985H303.28V87.2735C301.115 91.6632 295.132 95.175 288.46 95.175C277.868 95.175 271.196 89.0294 271.196 80.9294V80.9338ZM293.659 72.5338C291.951 72.7015 290.252 72.9485 288.589 73.3676C286.535 73.8882 284.361 74.7573 283.057 76.5044C282.844 76.7912 282.654 77.1 282.498 77.422C282.046 78.3618 281.882 79.4118 281.882 80.4485C281.882 84.6441 285.124 86.9823 290.221 86.9823C297.97 86.9823 303.276 81.322 303.276 73.5176V72.2162C303.276 72.2162 300.454 72.2029 300.259 72.2073C296.804 72.2426 296.675 72.2868 294.888 72.4279C294.475 72.4588 294.067 72.4941 293.654 72.5382L293.659 72.5338Z" fill="#FDFDFC"/>
<g clip-path="url(#clip0_377_1633)">
<path d="M0 2.4C0 1.07451 1.07307 0 2.39677 0H117.442C118.765 0 119.839 1.07452 119.839 2.4V117.6C119.839 118.925 118.765 120 117.442 120H2.39677C1.07307 120 0 118.925 0 117.6V2.4Z" fill="#FDFDFC"/>
<path d="M59.9166 60.0027L93.4738 93.5996L26.3644 93.5996L59.9166 60.0027Z" fill="url(#paint0_linear_377_1633)"/>
<path d="M26.3646 26.412L93.474 26.4002L59.9168 60.0033L26.3646 26.412Z" fill="url(#paint1_linear_377_1633)"/>
<path d="M59.9218 59.9969L26.3647 93.6V26.4L59.9218 59.9969Z" fill="url(#paint2_linear_377_1633)"/>
</g>
<defs>
<linearGradient id="paint0_linear_377_1633" x1="26.3647" y1="93.6" x2="59.5397" y2="59.7045" gradientUnits="userSpaceOnUse">
<stop stop-opacity="0.8"/>
<stop offset="1" stop-opacity="0.95"/>
</linearGradient>
<linearGradient id="paint1_linear_377_1633" x1="59.8415" y1="26.4" x2="59.5" y2="59.9965" gradientUnits="userSpaceOnUse">
<stop stop-opacity="0.5"/>
<stop offset="1" stop-opacity="0.7"/>
</linearGradient>
<linearGradient id="paint2_linear_377_1633" x1="26.7271" y1="60.2902" x2="60.2095" y2="60.2902" gradientUnits="userSpaceOnUse">
<stop stop-opacity="0.7"/>
<stop offset="1" stop-opacity="0.9"/>
</linearGradient>
<clipPath id="clip0_377_1633">
<rect width="119.839" height="120" fill="white"/>
</clipPath>
</defs>
</svg>
