<svg width="393" height="120" viewBox="0 0 393 120" fill="none" xmlns="http://www.w3.org/2000/svg">
<path d="M202.056 80.9338C202.056 77.5279 202.96 74.1485 205.262 71.5412C207.35 69.1809 210.208 67.7382 213.151 66.7059C219.593 64.447 225.488 64.2485 232.919 64.2573C233.364 64.2573 234.259 64.2485 234.259 64.2485V62.9779C234.259 58.822 231.832 55.125 227.848 53.7088C226.53 53.2368 225.123 53.0294 223.725 53.0294C217.817 53.0294 213.583 55.8573 212.786 61.6147H202.154C203.628 51.5647 212.394 44.4397 223.725 44.4397C236.129 44.4397 244.989 51.3706 244.989 63.4676V94.3985H234.259V87.2735C232.086 91.6632 226.08 95.175 219.384 95.175C208.752 95.175 202.056 89.0294 202.056 80.9294V80.9338ZM224.606 72.5338C222.892 72.7015 221.187 72.9485 219.518 73.3676C217.456 73.8882 215.275 74.7573 213.966 76.5044C213.752 76.7912 213.561 77.1 213.405 77.422C212.951 78.3618 212.786 79.4118 212.786 80.4485C212.786 84.6441 216.04 86.9823 221.156 86.9823C228.934 86.9823 234.259 81.322 234.259 73.5176V72.2162C234.259 72.2162 231.427 72.2029 231.231 72.2073C227.763 72.2426 227.634 72.2868 225.84 72.4279C225.426 72.4588 225.016 72.4941 224.602 72.5382L224.606 72.5338Z" fill="#0A0A0A"/>
<path d="M245.238 112.553V103.575C245.928 103.672 247.01 103.769 247.998 103.769C252.424 103.769 253.804 100.549 253.804 95.0823V45.2162H264.543V96.3529C264.543 106.994 259.516 112.946 249.178 112.946C247.704 112.946 246.026 112.751 245.242 112.557L245.238 112.553ZM252.727 30.8735C252.727 27.3132 255.447 24.7059 259.124 24.7059C262.802 24.7059 265.611 27.3132 265.611 30.8735C265.611 34.4338 262.806 37.0412 259.124 37.0412C255.442 37.0412 252.727 34.4338 252.727 30.8735Z" fill="#0A0A0A"/>
<path d="M334.482 87.472V94.4029H323.65V25.3103H334.482V52.0456C337.336 47.4573 343.743 44.4353 350.631 44.4353C365.305 44.4353 374.957 54.4853 374.957 69.8073C374.957 85.1294 365.305 95.1794 350.631 95.1794C343.841 95.1794 337.336 92.0559 334.482 87.472ZM364.023 69.8073C364.023 60.15 357.825 53.6117 349.25 53.6117C340.675 53.6117 334.478 60.15 334.478 69.8073C334.478 79.4647 340.586 86.0073 349.25 86.0073C357.914 86.0073 364.023 79.3676 364.023 69.8073Z" fill="#0A0A0A"/>
<path d="M380.687 30.8735C380.687 27.5515 383.225 25.1206 386.662 25.1206C390.099 25.1206 392.708 27.5515 392.708 30.8735C392.708 34.1956 390.091 36.6265 386.662 36.6265C383.234 36.6265 380.687 34.1956 380.687 30.8735ZM381.689 45.2162H392.428V94.3985H381.689V45.2162Z" fill="#0A0A0A"/>
<path d="M187.573 45.2162L160.455 69.7809L187.64 94.3985H202.056L183.272 76.8838L175.73 69.7809L183.272 62.678L201.994 45.2162H187.573Z" fill="#0A0A0A"/>
<path d="M165.824 25.2838H155.085V94.372H165.824V25.2838Z" fill="#0A0A0A"/>
<path d="M271.626 80.9338C271.626 77.5279 272.53 74.1485 274.832 71.5412C276.92 69.1809 279.778 67.7382 282.721 66.7059C289.163 64.447 295.058 64.2485 302.489 64.2573C302.934 64.2573 303.829 64.2485 303.829 64.2485V62.9779C303.829 58.822 301.403 55.125 297.418 53.7088C296.1 53.2368 294.693 53.0294 293.295 53.0294C287.387 53.0294 283.153 55.8573 282.356 61.6147H271.724C273.198 51.5647 281.964 44.4397 293.295 44.4397C305.699 44.4397 314.559 51.3706 314.559 63.4676V94.3985H303.829V87.2735C301.656 91.6632 295.65 95.175 288.954 95.175C278.322 95.175 271.626 89.0294 271.626 80.9294V80.9338ZM294.172 72.5338C292.458 72.7015 290.753 72.9485 289.083 73.3676C287.022 73.8882 284.84 74.7573 283.531 76.5044C283.318 76.7912 283.126 77.1 282.97 77.422C282.516 78.3618 282.352 79.4118 282.352 80.4485C282.352 84.6441 285.606 86.9823 290.722 86.9823C298.5 86.9823 303.825 81.322 303.825 73.5176V72.2162C303.825 72.2162 300.993 72.2029 300.797 72.2073C297.329 72.2426 297.2 72.2868 295.405 72.4279C294.991 72.4588 294.582 72.4941 294.168 72.5382L294.172 72.5338Z" fill="#0A0A0A"/>
<g clip-path="url(#clip0_377_1631)">
<path d="M0 2.47749C0 1.15379 1.07307 0.080719 2.39677 0.080719H117.442C118.765 0.080719 119.839 1.15379 119.839 2.47749V117.523C119.839 118.846 118.765 119.919 117.442 119.919H2.39677C1.07307 119.919 0 118.846 0 117.523V2.47749Z" fill="#0A0A0A"/>
<path d="M59.9217 59.9969L26.3645 26.4452H93.474L59.9217 59.9969Z" fill="url(#paint0_linear_377_1631)"/>
<path d="M93.4741 93.5425L26.3645 93.5543L59.9218 59.9964L93.4741 93.5425Z" fill="url(#paint1_linear_377_1631)"/>
<path d="M59.9217 59.9969L26.3645 93.5548V26.4452L59.9217 59.9969Z" fill="url(#paint2_linear_377_1631)"/>
</g>
<defs>
<linearGradient id="paint0_linear_377_1631" x1="60.2094" y1="60.2897" x2="60.2094" y2="26.8072" gradientUnits="userSpaceOnUse">
<stop stop-color="white"/>
<stop offset="1" stop-color="white" stop-opacity="0.8"/>
</linearGradient>
<linearGradient id="paint1_linear_377_1631" x1="59.9162" y1="59.9964" x2="26.7269" y2="93.1856" gradientUnits="userSpaceOnUse">
<stop stop-color="white" stop-opacity="0.3"/>
<stop offset="1" stop-color="white" stop-opacity="0.5"/>
</linearGradient>
<linearGradient id="paint2_linear_377_1631" x1="26.7269" y1="60.2898" x2="60.2094" y2="60.2898" gradientUnits="userSpaceOnUse">
<stop stop-color="white" stop-opacity="0.8"/>
<stop offset="1" stop-color="white" stop-opacity="0.5"/>
</linearGradient>
<clipPath id="clip0_377_1631">
<rect width="119.839" height="119.839" fill="white" transform="translate(0 0.080719)"/>
</clipPath>
</defs>
</svg>
